<?xml version="1.0" encoding="iso-8859-1"?>
<!-- Generator: Adobe Illustrator 19.1.0, SVG Export Plug-In . SVG Version: 6.00 Build 0)  -->
<svg version="1.1" id="Capa_1" xmlns="http://www.w3.org/2000/svg" xmlns:xlink="http://www.w3.org/1999/xlink" x="0px" y="0px"
	 viewBox="0 0 482.846 482.846" style="enable-background:new 0 0 482.846 482.846;" xml:space="preserve">
<g>
	<g>
		<path d="M468.364,91.023l-76.6-76.6c-9.3-9.3-21.7-14.4-34.8-14.4c-10.3,0-20.2,3.2-28.6,9.2l-64.4,46.1c-4,2.9-8.9,4.4-13.7,4.1
			c-3.1-0.2-6.3-0.2-9.4-0.2c-48.5,0-94.1,18.9-128.4,53.2c-36.3,36.3-55.6,86.5-53,137.8c0.2,4.8-1.2,9.7-4.1,13.7l-46.1,64.4
			c-14.1,19.7-11.9,46.4,5.2,63.5l76.6,76.6c9.3,9.3,21.7,14.4,34.8,14.4c10.3,0,20.2-3.2,28.6-9.1l64.6-46.1
			c4-2.9,8.9-4.3,13.6-4.1c2.9,0.1,5.9,0.2,8.9,0.2l0,0c48.6,0,94.4-18.9,128.8-53.3c36.3-36.3,55.6-86.4,53.1-137.7
			c-0.2-4.7,1.2-9.6,4.1-13.6l46.1-64.6C487.664,134.823,485.464,108.123,468.364,91.023z M451.664,138.723l-46.1,64.7
			c-6.4,9-9.6,19.8-9.1,30.6c2.1,43.6-14.4,86.4-45.2,117.3c-29.3,29.3-68.3,45.4-109.7,45.4c-2.5,0-5.1-0.1-7.6-0.2
			c-10.9-0.5-21.6,2.7-30.6,9.1l-64.6,46.1c-3.8,2.7-8.3,4.1-12.9,4.1c-5.9,0-11.5-2.3-15.7-6.5l-76.6-76.6
			c-7.7-7.7-8.7-19.8-2.4-28.7l46.1-64.4c6.4-9,9.7-20,9.1-30.8c-2.2-43.6,14.2-86.4,45.1-117.3c29.2-29.2,68.1-45.3,109.3-45.3
			c2.7,0,5.3,0.1,8,0.2c11,0.6,21.7-2.6,30.8-9.1l64.4-46.1c3.8-2.7,8.3-4.2,12.9-4.2c5.9,0,11.5,2.3,15.7,6.5l76.6,76.6
			C456.964,117.823,457.964,129.923,451.664,138.723z"/>
		<path d="M241.364,124.523c-33.1,0-64.7,14.1-86.9,38.7c-19.3,21.4-29.9,49.2-29.9,78.3s10.6,56.9,29.9,78.3
			c22.2,24.6,53.9,38.7,86.9,38.7c33.1,0,64.7-14.1,86.9-38.7c19.3-21.4,29.9-49.2,29.9-78.3s-10.6-56.9-29.9-78.3
			C306.064,138.523,274.464,124.523,241.364,124.523z M308.264,301.623c-17.1,18.9-41.4,29.7-66.9,29.7c-25.4,0-49.8-10.8-66.9-29.7
			c-30.5-33.8-30.5-86.6,0-120.4c17.1-18.9,41.4-29.7,66.9-29.7c25.4,0,49.8,10.8,66.9,29.7
			C338.764,215.023,338.764,267.823,308.264,301.623z"/>
	</g>
</g>
<g>
</g>
<g>
</g>
<g>
</g>
<g>
</g>
<g>
</g>
<g>
</g>
<g>
</g>
<g>
</g>
<g>
</g>
<g>
</g>
<g>
</g>
<g>
</g>
<g>
</g>
<g>
</g>
<g>
</g>
</svg>
