<?xml version="1.0" encoding="iso-8859-1"?>
<!-- Generator: Adobe Illustrator 18.1.1, SVG Export Plug-In . SVG Version: 6.00 Build 0)  -->
<svg version="1.1" id="Capa_1" xmlns="http://www.w3.org/2000/svg" xmlns:xlink="http://www.w3.org/1999/xlink" x="0px" y="0px"
	 viewBox="0 0 319.088 319.088" style="enable-background:new 0 0 319.088 319.088;" xml:space="preserve">
<g>
	<g>
		<g>
			<path style="fill:#010002;" d="M218.389,75.184h-13.549c1.507-1.751,2.448-3.998,2.448-6.478c0-4.139-2.529-7.691-6.114-9.197
				c5.134-0.397,9.214-4.672,9.214-9.921c0-5.499-4.471-9.975-9.981-9.975c-5.504,0-9.981,4.482-9.981,9.975
				c0,4.139,2.524,7.702,6.114,9.219c-5.14,0.392-9.214,4.656-9.214,9.899c0,2.48,0.936,4.727,2.442,6.478H140.54
				c-0.81-4.699-4.884-8.295-9.801-8.295c-4.922,0-9.007,3.595-9.812,8.295h-20.222c-10.019,0-18.161,8.148-18.161,18.161v207.576
				c0,10.013,8.142,18.166,18.161,18.166h117.685c10.013,0,18.156-8.153,18.156-18.166V93.345
				C236.545,83.332,228.403,75.184,218.389,75.184z M194.039,49.588c0-3.503,2.856-6.347,6.375-6.347
				c3.514,0,6.369,2.845,6.369,6.347c0,3.519-2.856,6.375-6.369,6.375C196.894,55.968,194.039,53.112,194.039,49.588z
				 M197.302,62.353c3.508,0,6.369,2.845,6.369,6.353c0,3.514-2.861,6.369-6.369,6.369s-6.369-2.861-6.369-6.369
				C190.933,65.198,193.799,62.353,197.302,62.353z M159.544,98.05c10.818,0,19.597,8.773,19.597,19.597
				s-8.779,19.592-19.597,19.592c-10.818,0-19.597-8.773-19.597-19.597S148.726,98.05,159.544,98.05z M138.908,86.862
				c3.503,0,6.358,2.861,6.358,6.375c0,3.503-2.855,6.358-6.358,6.358c-3.508,0-6.364-2.856-6.364-6.358
				C132.545,89.723,135.4,86.862,138.908,86.862z M124.712,75.184c0.761-2.671,3.122-4.667,6.026-4.667
				c2.904,0,5.254,2.002,6.01,4.667h-0.038v3.622c-0.827,2.556-3.155,4.438-5.978,4.438c-2.834,0-5.156-1.882-5.978-4.438h-0.049
				v-3.622H124.712z M221.12,308.596H97.968v-31.193H221.12V308.596z"/>
		</g>
		<g>
			<path style="fill:#010002;" d="M112.583,57.779c0,5.499,4.476,9.97,9.981,9.97s9.975-4.476,9.975-9.97
				c0-5.058-3.78-9.208-8.654-9.861c4.873-0.664,8.654-4.797,8.654-9.861c0-2.458-0.919-4.672-2.399-6.413
				c0.201,0.005,0.392,0.054,0.593,0.054c5.493,0,9.975-4.476,9.975-9.97c0-0.207-0.049-0.397-0.065-0.598
				c1.746,1.479,3.965,2.404,6.429,2.404c5.504,0,9.975-4.487,9.975-9.997c0-5.499-4.476-9.97-9.975-9.97
				c-5.499,0-9.986,4.476-9.986,9.97c0,0.212,0.054,0.397,0.054,0.598c-1.735-1.485-3.949-2.404-6.413-2.404
				c-5.51,0-9.986,4.487-9.986,9.997c0,2.448,0.914,4.672,2.399,6.407c-0.201-0.011-0.386-0.065-0.587-0.065
				c-5.51,0-9.981,4.482-9.981,9.986c0,5.058,3.775,9.197,8.664,9.861C116.363,48.565,112.583,52.715,112.583,57.779z
				 M147.078,7.196c3.508,0,6.364,2.839,6.364,6.347c0,3.514-2.855,6.375-6.364,6.375c-3.514,0-6.364-2.861-6.364-6.375
				C140.719,10.041,143.57,7.196,147.078,7.196z M130.739,15.354c3.508,0,6.353,2.861,6.353,6.375c0,3.503-2.845,6.347-6.353,6.347
				c-3.514,0-6.375-2.839-6.375-6.347C124.364,18.215,127.231,15.354,130.739,15.354z M116.2,38.063
				c0-3.503,2.856-6.358,6.369-6.358c3.503,0,6.358,2.856,6.358,6.358c0,3.514-2.856,6.369-6.358,6.369
				C119.056,44.426,116.2,41.576,116.2,38.063z M122.569,51.405c3.503,0,6.358,2.861,6.358,6.375c0,3.503-2.856,6.353-6.358,6.353
				c-3.514,0-6.369-2.85-6.369-6.353C116.2,54.266,119.056,51.405,122.569,51.405z"/>
		</g>
		<g>
			<path style="fill:#010002;" d="M167.714,19.961c2.464,0,4.688-0.925,6.434-2.404c-0.011,0.201-0.065,0.386-0.065,0.593
				c0,5.504,4.476,9.975,9.981,9.975c1.273,0,2.486-0.261,3.606-0.696c-0.196,0.794-0.343,1.61-0.343,2.469
				c0,5.499,4.465,9.97,9.975,9.97c5.51,0,9.986-4.476,9.986-9.97c0-5.504-4.476-9.975-9.986-9.975
				c-1.273,0-2.491,0.261-3.606,0.707c0.19-0.8,0.343-1.615,0.343-2.475c0-5.504-4.471-9.992-9.975-9.992
				c-2.453,0-4.678,0.93-6.424,2.404c0.016-0.201,0.065-0.386,0.065-0.593c0-5.504-4.471-9.975-9.992-9.975
				c-5.504,0-9.975,4.476-9.975,9.975C157.733,15.48,162.209,19.961,167.714,19.961z M197.302,23.54
				c3.508,0,6.369,2.856,6.369,6.353c0,3.503-2.861,6.358-6.369,6.358s-6.369-2.856-6.369-6.358
				C190.933,26.396,193.799,23.54,197.302,23.54z M184.063,11.776c3.514,0,6.369,2.861,6.369,6.369s-2.85,6.353-6.369,6.353
				c-3.508,0-6.358-2.845-6.358-6.353S180.555,11.776,184.063,11.776z M167.714,3.612c3.514,0,6.369,2.85,6.369,6.358
				s-2.85,6.369-6.369,6.369c-3.503,0-6.358-2.861-6.358-6.369S164.211,3.612,167.714,3.612z"/>
		</g>
	</g>
</g>
<g>
</g>
<g>
</g>
<g>
</g>
<g>
</g>
<g>
</g>
<g>
</g>
<g>
</g>
<g>
</g>
<g>
</g>
<g>
</g>
<g>
</g>
<g>
</g>
<g>
</g>
<g>
</g>
<g>
</g>
</svg>
