<svg xmlns="http://www.w3.org/2000/svg" width="400" height="400"><path d="M113.9 7.3C-62.6 72.8-20.1 344 166.5 344c19.3 0 4.4-19.3-17.9-23.3C25.6 299.1-23.2 151 63.8 63.8c87.7-87.7 235.1-39 257 84.8 3.9 22.3 23.2 37.2 23.2 18C344 56.1 217.7-31.3 113.9 7.2m15.5 40.8C3 87.1 22.4 278.2 155 297.6c28.6 4.2 25.2-15.2-3.7-21.4-68.8-14.7-107-88.5-77.8-150.2 44.6-94 180.8-77 202.7 25.3 6.2 29 25.6 32.3 21.4 3.7C286.1 76.4 205 24.9 129.4 48.1m4.6 46.5C63.3 132 76 237.2 153 251.5c27.3 5 29.2-12.4 2.1-19.7-54.9-14.8-64-93.4-13.6-117.3a63.4 63.4 0 0191.3 47.5c.9 5.4 5 8.4 12.4 9.3 12 1.4 12.2-1 2.2-34C235.7 98.6 172 74.7 134 94.6m82.9 122.5l-25 25.3 1 77.8L194 398h204V194l-78-1-78-1.2-25.1 25.3M384 296v88H208V254.2l22.9-23 22.8-23.2H384v88m-128 0v40h80v-80h-80v40m64 0v24h-48v-48h48v24" fill-rule="evenodd"/></svg>